<svg width="80" height="47" viewBox="0 0 80 47" fill="none" xmlns="http://www.w3.org/2000/svg">
<path d="M0.806134 44.3976V38.6407H4.07448V39.1928H1.45455V41.2256H3.67141V41.7689H1.45455V44.3976H0.806134ZM6.6378 44.5027C6.29315 44.5027 5.97186 44.4151 5.67394 44.2399C5.37603 44.0646 5.13652 43.8134 4.95543 43.4863C4.77435 43.1533 4.6838 42.7503 4.6838 42.2771C4.6838 41.8039 4.77435 41.4009 4.95543 41.0679C5.13652 40.7349 5.37603 40.4808 5.67394 40.3056C5.97186 40.1303 6.29315 40.0427 6.6378 40.0427C6.98245 40.0427 7.30082 40.1303 7.59289 40.3056C7.89081 40.4808 8.13032 40.7349 8.3114 41.0679C8.49833 41.4009 8.5918 41.8039 8.5918 42.2771C8.5918 42.7503 8.49833 43.1533 8.3114 43.4863C8.13032 43.8134 7.89081 44.0646 7.59289 44.2399C7.30082 44.4151 6.98245 44.5027 6.6378 44.5027ZM6.6378 43.9682C6.89483 43.9682 7.11973 43.8981 7.3125 43.7579C7.51111 43.6177 7.66299 43.422 7.76814 43.1709C7.87913 42.9138 7.93462 42.6159 7.93462 42.2771C7.93462 41.9441 7.87913 41.6491 7.76814 41.3921C7.66299 41.1351 7.51111 40.9365 7.3125 40.7963C7.11973 40.6502 6.89483 40.5772 6.6378 40.5772C6.38661 40.5772 6.16171 40.6502 5.9631 40.7963C5.77033 40.9365 5.61845 41.1351 5.50746 41.3921C5.40231 41.6491 5.34974 41.9441 5.34974 42.2771C5.34974 42.6159 5.40231 42.9138 5.50746 43.1709C5.61845 43.422 5.77033 43.6177 5.9631 43.7579C6.16171 43.8981 6.38661 43.9682 6.6378 43.9682ZM9.83639 44.3976V40.1479H10.3621L10.4147 40.9277H10.441C10.587 40.659 10.7623 40.4458 10.9667 40.2881C11.177 40.1245 11.4048 40.0427 11.6502 40.0427C11.7378 40.0427 11.8167 40.0515 11.8868 40.069C11.9569 40.0807 12.024 40.1011 12.0883 40.1303L11.9656 40.6911C11.8955 40.6678 11.8313 40.6502 11.7729 40.6385C11.7203 40.6269 11.6502 40.621 11.5626 40.621C11.3815 40.621 11.1916 40.697 10.993 40.8488C10.7944 40.9949 10.6192 41.2548 10.4673 41.6287V44.3976H9.83639ZM12.9018 44.3976V40.1479H13.4276L13.4801 40.7787H13.5064C13.6934 40.5743 13.8978 40.402 14.1198 40.2618C14.3476 40.1157 14.5842 40.0427 14.8295 40.0427C15.1625 40.0427 15.4195 40.1186 15.6006 40.2705C15.7876 40.4166 15.9219 40.6152 16.0037 40.8664C16.2315 40.621 16.4593 40.4224 16.6872 40.2705C16.9208 40.1186 17.1632 40.0427 17.4144 40.0427C17.8525 40.0427 18.1768 40.1829 18.387 40.4633C18.5973 40.7437 18.7025 41.1555 18.7025 41.6988V44.3976H18.0628V41.7776C18.0628 41.3687 17.9957 41.0708 17.8613 40.8839C17.727 40.697 17.5167 40.6035 17.2304 40.6035C17.061 40.6035 16.8828 40.6619 16.6959 40.7787C16.5148 40.8897 16.3221 41.0591 16.1176 41.287V44.3976H15.478V41.7776C15.478 41.3687 15.4108 41.0708 15.2764 40.8839C15.1479 40.697 14.9405 40.6035 14.6543 40.6035C14.3155 40.6035 13.9416 40.8313 13.5327 41.287V44.3976H12.9018ZM21.9024 44.5027C21.5344 44.5027 21.1956 44.4151 20.886 44.2399C20.5823 44.0588 20.3398 43.8047 20.1587 43.4775C19.9777 43.1446 19.8871 42.7444 19.8871 42.2771C19.8871 41.8156 19.9777 41.4184 20.1587 41.0854C20.3398 40.7525 20.5735 40.4954 20.8597 40.3143C21.1518 40.1333 21.4614 40.0427 21.7885 40.0427C22.139 40.0427 22.4399 40.1245 22.6911 40.2881C22.9422 40.4516 23.1321 40.6824 23.2606 40.9803C23.395 41.2724 23.4621 41.6228 23.4621 42.0318C23.4621 42.1019 23.4592 42.172 23.4534 42.2421C23.4534 42.3063 23.4475 42.3647 23.4359 42.4173H20.3866L20.3778 41.9529H22.8926C22.8926 41.4973 22.7962 41.1526 22.6034 40.9189C22.4107 40.6794 22.142 40.5597 21.7973 40.5597C21.587 40.5597 21.3825 40.621 21.1839 40.7437C20.9853 40.8664 20.8218 41.0533 20.6932 41.3045C20.5647 41.5557 20.5005 41.8799 20.5005 42.2771C20.5005 42.6568 20.5677 42.9722 20.702 43.2234C20.8364 43.4746 21.0145 43.6645 21.2365 43.793C21.4643 43.9215 21.7126 43.9858 21.9813 43.9858C22.1974 43.9858 22.3902 43.9536 22.5596 43.8894C22.7349 43.8251 22.9014 43.7433 23.0591 43.644L23.2957 44.0646C23.1146 44.1814 22.9101 44.2837 22.6823 44.3713C22.4603 44.4589 22.2004 44.5027 21.9024 44.5027ZM24.6204 44.3976V40.1479H25.1461L25.1987 40.9277H25.225C25.371 40.659 25.5463 40.4458 25.7507 40.2881C25.961 40.1245 26.1889 40.0427 26.4342 40.0427C26.5218 40.0427 26.6007 40.0515 26.6708 40.069C26.7409 40.0807 26.8081 40.1011 26.8723 40.1303L26.7497 40.6911C26.6796 40.6678 26.6153 40.6502 26.5569 40.6385C26.5043 40.6269 26.4342 40.621 26.3466 40.621C26.1655 40.621 25.9756 40.697 25.777 40.8488C25.5784 40.9949 25.4032 41.2548 25.2513 41.6287V44.3976H24.6204ZM28.3781 44.5027C28.2204 44.5027 28.0889 44.4677 27.9838 44.3976C27.8786 44.3333 27.8027 44.2369 27.756 44.1084C27.7092 43.9741 27.6859 43.8105 27.6859 43.6177V38.1413H28.3167V43.6703C28.3167 43.7755 28.3372 43.8514 28.3781 43.8981C28.419 43.9449 28.4657 43.9682 28.5183 43.9682C28.5358 43.9682 28.5562 43.9682 28.5796 43.9682C28.603 43.9624 28.6351 43.9565 28.676 43.9507L28.7636 44.4414C28.7169 44.4531 28.6614 44.4648 28.5971 44.4764C28.5387 44.494 28.4657 44.5027 28.3781 44.5027ZM29.9728 46.2552C29.8794 46.2552 29.7917 46.2464 29.7099 46.2289C29.6282 46.2114 29.5551 46.1909 29.4909 46.1676L29.6136 45.6506C29.6603 45.6681 29.7129 45.6827 29.7713 45.6944C29.8355 45.7119 29.894 45.7207 29.9465 45.7207C30.1919 45.7207 30.3963 45.6272 30.5599 45.4403C30.7235 45.2592 30.8491 45.0285 30.9367 44.7481L31.0418 44.4239L29.3244 40.1479H29.9816L30.8929 42.5838C30.963 42.7649 31.0331 42.9606 31.1032 43.1709C31.1791 43.3753 31.2492 43.5768 31.3135 43.7755H31.3485C31.4128 43.5827 31.477 43.3841 31.5413 43.1796C31.6055 42.9693 31.6639 42.7707 31.7165 42.5838L32.5139 40.1479H33.136L31.5237 44.7919C31.4244 45.0606 31.3076 45.3059 31.1733 45.5279C31.0389 45.7499 30.8724 45.9251 30.6738 46.0537C30.481 46.188 30.2474 46.2552 29.9728 46.2552ZM38.1934 44.5027C37.6911 44.5027 37.2471 44.3859 36.8616 44.1522C36.476 43.9127 36.1723 43.571 35.9503 43.127C35.7342 42.6772 35.6261 42.1427 35.6261 41.5235C35.6261 41.0562 35.6903 40.6415 35.8189 40.2793C35.9532 39.9113 36.1372 39.5958 36.3709 39.333C36.6045 39.0701 36.8791 38.8715 37.1945 38.7371C37.5158 38.6028 37.8663 38.5356 38.246 38.5356C38.6432 38.5356 38.9733 38.6115 39.2362 38.7634C39.5049 38.9094 39.721 39.0672 39.8846 39.2366L39.5253 39.6659C39.3793 39.5082 39.207 39.3768 39.0083 39.2716C38.8097 39.1606 38.5615 39.1051 38.2635 39.1051C37.8663 39.1051 37.5188 39.2044 37.2208 39.4031C36.9288 39.5958 36.7009 39.8733 36.5374 40.2355C36.3796 40.5918 36.3008 41.0153 36.3008 41.506C36.3008 42.0025 36.3767 42.4319 36.5286 42.7941C36.6805 43.1563 36.9025 43.4366 37.1945 43.6353C37.4866 43.8339 37.84 43.9332 38.2548 43.9332C38.4768 43.9332 38.6871 43.9011 38.8857 43.8368C39.0843 43.7667 39.242 43.6762 39.3588 43.5652V41.9967H38.0971V41.4534H39.9547V43.8368C39.7736 44.0296 39.5312 44.1902 39.2274 44.3187C38.9295 44.4414 38.5848 44.5027 38.1934 44.5027ZM41.3852 44.3976V40.1479H41.9109L41.9635 40.9277H41.9898C42.1358 40.659 42.3111 40.4458 42.5155 40.2881C42.7258 40.1245 42.9536 40.0427 43.199 40.0427C43.2866 40.0427 43.3655 40.0515 43.4356 40.069C43.5057 40.0807 43.5729 40.1011 43.6371 40.1303L43.5144 40.6911C43.4443 40.6678 43.3801 40.6502 43.3217 40.6385C43.2691 40.6269 43.199 40.621 43.1114 40.621C42.9303 40.621 42.7404 40.697 42.5418 40.8488C42.3432 40.9949 42.168 41.2548 42.0161 41.6287V44.3976H41.3852ZM45.2177 44.5027C44.984 44.5027 44.7737 44.456 44.5868 44.3625C44.3999 44.2691 44.2509 44.1347 44.1399 43.9595C44.0289 43.7784 43.9734 43.5593 43.9734 43.3023C43.9734 42.8408 44.1837 42.4874 44.6043 42.2421C45.0308 41.9909 45.7025 41.8156 46.6197 41.7163C46.6197 41.5235 46.5934 41.3395 46.5408 41.1643C46.4941 40.989 46.4035 40.8488 46.2692 40.7437C46.1406 40.6327 45.9537 40.5772 45.7084 40.5772C45.4513 40.5772 45.2118 40.6269 44.9899 40.7262C44.7737 40.8255 44.5839 40.9306 44.4203 41.0416L44.1662 40.6035C44.2889 40.5217 44.4349 40.437 44.6043 40.3494C44.7737 40.2618 44.9607 40.1887 45.1651 40.1303C45.3696 40.0719 45.5857 40.0427 45.8135 40.0427C46.1582 40.0427 46.4356 40.1157 46.6459 40.2618C46.8562 40.4078 47.0081 40.6093 47.1016 40.8664C47.2009 41.1234 47.2505 41.4242 47.2505 41.7689V44.3976H46.7248L46.6722 43.8806H46.6459C46.4415 44.05 46.2195 44.196 45.98 44.3187C45.7405 44.4414 45.4864 44.5027 45.2177 44.5027ZM45.3842 43.9858C45.6061 43.9858 45.8106 43.9361 45.9975 43.8368C46.1903 43.7316 46.3977 43.5827 46.6197 43.3899V42.1457C46.1173 42.2041 45.7201 42.2859 45.428 42.391C45.1359 42.4903 44.9256 42.613 44.7971 42.759C44.6686 42.9051 44.6043 43.0745 44.6043 43.2672C44.6043 43.5184 44.6803 43.7024 44.8321 43.8193C44.9899 43.9303 45.1739 43.9858 45.3842 43.9858ZM48.7312 46.2201V40.1479H49.2569L49.3095 40.6561H49.3358C49.5285 40.4867 49.7418 40.3435 49.9754 40.2267C50.2149 40.104 50.4603 40.0427 50.7115 40.0427C51.0795 40.0427 51.3891 40.1333 51.6403 40.3143C51.8914 40.4896 52.0784 40.7408 52.201 41.0679C52.3296 41.3892 52.3938 41.7689 52.3938 42.207C52.3938 42.6919 52.3062 43.1066 52.1309 43.4513C51.9615 43.7901 51.7366 44.05 51.4562 44.2311C51.1759 44.4122 50.875 44.5027 50.5537 44.5027C50.361 44.5027 50.1623 44.4589 49.9579 44.3713C49.7534 44.2837 49.549 44.161 49.3445 44.0033L49.3621 44.7568V46.2201H48.7312ZM50.4486 43.9595C50.6998 43.9595 50.9217 43.8894 51.1145 43.7492C51.3073 43.609 51.4592 43.4074 51.5702 43.1446C51.6811 42.8817 51.7366 42.5721 51.7366 42.2158C51.7366 41.8945 51.6958 41.6112 51.614 41.3658C51.538 41.1205 51.4124 40.9306 51.2372 40.7963C51.0678 40.6561 50.8429 40.586 50.5625 40.586C50.3756 40.586 50.1828 40.6385 49.9842 40.7437C49.7914 40.843 49.584 40.9949 49.3621 41.1993V43.4951C49.5724 43.6645 49.771 43.7842 49.9579 43.8543C50.1448 43.9244 50.3084 43.9595 50.4486 43.9595ZM53.6535 44.3976V38.1413H54.2844V39.8762L54.2668 40.77C54.4713 40.5655 54.6874 40.3932 54.9152 40.253C55.1431 40.1128 55.4001 40.0427 55.6863 40.0427C56.1361 40.0427 56.4633 40.1829 56.6677 40.4633C56.878 40.7437 56.9832 41.1555 56.9832 41.6988V44.3976H56.3435V41.7776C56.3435 41.3687 56.2763 41.0708 56.142 40.8839C56.0135 40.697 55.8002 40.6035 55.5023 40.6035C55.2803 40.6035 55.0788 40.6619 54.8977 40.7787C54.7166 40.8897 54.5122 41.0591 54.2844 41.287V44.3976H53.6535ZM58.4731 44.3976V40.1479H59.104V44.3976H58.4731ZM58.7973 39.2366C58.6746 39.2366 58.5695 39.1957 58.4819 39.1139C58.4001 39.0321 58.3592 38.9241 58.3592 38.7897C58.3592 38.6612 58.4001 38.559 58.4819 38.483C58.5695 38.4012 58.6746 38.3603 58.7973 38.3603C58.9258 38.3603 59.031 38.4012 59.1127 38.483C59.1945 38.559 59.2354 38.6612 59.2354 38.7897C59.2354 38.9241 59.1945 39.0321 59.1127 39.1139C59.031 39.1957 58.9258 39.2366 58.7973 39.2366ZM61.9709 44.5027C61.5328 44.5027 61.2261 44.3742 61.0509 44.1172C60.8814 43.8602 60.7967 43.5272 60.7967 43.1183V40.6736H60.1571V40.1917L60.823 40.1479L60.9019 38.9474H61.4364V40.1479H62.6018V40.6736H61.4364V43.1358C61.4364 43.3987 61.4831 43.6061 61.5766 43.7579C61.6759 43.904 61.8541 43.977 62.1111 43.977C62.187 43.977 62.2688 43.9653 62.3564 43.9419C62.4499 43.9186 62.5317 43.8923 62.6018 43.8631L62.7332 44.345C62.6164 44.3859 62.4908 44.4209 62.3564 44.4502C62.2221 44.4852 62.0936 44.5027 61.9709 44.5027ZM63.6713 44.3976V40.1479H64.3022V44.3976H63.6713ZM63.9955 39.2366C63.8728 39.2366 63.7677 39.1957 63.68 39.1139C63.5982 39.0321 63.5574 38.9241 63.5574 38.7897C63.5574 38.6612 63.5982 38.559 63.68 38.483C63.7677 38.4012 63.8728 38.3603 63.9955 38.3603C64.124 38.3603 64.2291 38.4012 64.3109 38.483C64.3927 38.559 64.4336 38.6612 64.4336 38.7897C64.4336 38.9241 64.3927 39.0321 64.3109 39.1139C64.2291 39.1957 64.124 39.2366 63.9955 39.2366Z" fill="black"/>
<path d="M66.5422 0.387756H67.1313L67.4786 3.31442C67.927 7.09353 70.9065 10.0731 74.6856 10.5215L77.6123 10.8687V11.4578L74.6856 11.8051C70.9065 12.2535 67.927 15.233 67.4786 19.0121L67.1313 21.9388H66.5422L66.195 19.0121C65.7466 15.233 62.767 12.2535 58.9879 11.8051L56.0612 11.4578V10.8687L58.9879 10.5215C62.767 10.0731 65.7466 7.09353 66.195 3.31442L66.5422 0.387756Z" fill="#7C3AED"/>
<path d="M65.0285 31.9668V32.0368C64.3283 32.9121 63.0329 33.5422 61.5275 33.5422C59.3569 33.5422 58.1666 32.3169 57.9566 30.4614C57.9566 30.3214 57.8865 29.3411 57.8865 29.026C57.4664 31.4417 55.0508 33.5072 52.11 33.5072C49.3442 33.5072 47.0686 32.1069 47.0686 29.1661C47.0686 25.35 50.9897 24.5098 55.1908 23.7396L57.8515 23.2494V20.7988C57.8515 18.4882 56.8013 16.4576 54.2105 16.4576C51.8999 16.4576 50.9897 17.7179 50.9897 19.2584C50.9897 20.4487 51.5848 21.2189 52.6001 21.2189C52.7752 21.2189 52.9502 21.1839 53.1253 21.1139C52.8102 22.2342 51.8299 22.8293 50.6046 22.8293C49.0291 22.8293 47.8038 21.8141 47.8038 20.1336C47.8038 17.753 50.4295 15.7924 54.2806 15.7924C59.1819 15.7924 61.9827 17.5429 61.9827 21.779C61.9827 24.5798 61.9126 26.8554 61.9126 29.096C61.9126 31.1266 62.5078 32.2119 64.0482 32.2119C64.3983 32.2119 64.7484 32.1069 65.0285 31.9668ZM57.8515 23.9146L55.786 24.2997C52.6701 24.9299 51.2347 26.1902 51.2347 28.6409C51.2347 30.7765 52.355 31.6867 53.8955 31.6867C55.926 31.6867 57.7465 29.9363 57.7815 27.0305L57.8515 23.9146Z" fill="black"/>
<path d="M45.7024 27.4856L46.0175 27.5206C45.7024 30.8815 44.302 33.6123 40.836 33.6123C37.9303 33.6123 36.0397 31.8618 36.0397 28.2558V17.0528H33.7641V16.7727C36.915 16.1425 39.0506 13.5868 39.7858 10.1209H40.1008V16.1425H45.4923L45.3173 17.0528H40.1008V28.2208C40.1008 30.3564 40.9061 31.4767 42.4115 31.4767C44.0919 31.4767 45.2472 30.0413 45.7024 27.4856Z" fill="black"/>
<path d="M31.5424 7.04004V29.4461C31.5424 31.7567 31.7875 32.4219 33.4329 33.1921V33.2622H25.5908V33.1921C27.2362 32.4219 27.4813 31.7567 27.4813 29.4461V10.8911C27.4813 8.7555 26.9911 7.84526 25.3457 7.11006V7.04004H31.5424Z" fill="black"/>
<path d="M11.1007 14.147L6.65449 24.4398H15.792L11.1007 14.147ZM6.09434 33.1921V33.2622H0.387787V33.1921C1.75316 32.4569 2.66341 30.9515 3.67868 28.6759L12.7111 8.4054H12.8512L22.5488 29.3411C23.5991 31.5817 24.0542 32.4569 25.3846 33.1921V33.2622H16.9473V33.1921C17.9626 32.737 18.5227 32.1418 18.5227 31.3016C18.5227 30.7065 18.3127 30.0413 17.9626 29.2361L16.2121 25.385H6.23438L4.90401 28.5009C4.58893 29.201 4.34386 29.9713 4.34386 30.7765C4.34386 31.8268 5.04405 32.737 6.09434 33.1921Z" fill="black"/>
</svg>
