<svg width="424" height="424" viewBox="0 0 424 424" fill="none" xmlns="http://www.w3.org/2000/svg">
<g clip-path="url(#clip0_130_42322)">
<path d="M212 402.27C165.532 402.27 127.73 364.455 127.73 318C127.73 294.495 137.548 272.155 154.786 256.202C154.429 254.785 154.23 253.287 154.23 251.75C154.23 245.947 156.973 240.793 161.239 237.493L129.863 181.737C118.64 187.223 106.026 190.27 92.75 190.27C46.2822 190.27 8.47998 152.468 8.47998 106C8.47998 59.5327 46.2822 21.7305 92.75 21.7305C132.765 21.7305 166.738 49.4362 175.032 88.1925C182.068 89.2922 187.766 94.473 189.621 101.23H247.112C249.59 56.9755 286.385 21.7305 331.25 21.7305C377.718 21.7305 415.52 59.5327 415.52 106C415.52 152.468 377.704 190.27 331.25 190.27C322.73 190.27 314.383 189.012 306.353 186.534C302.166 191.768 294.574 194.457 287.896 192.801L257.381 247.033C280.754 262.032 296.27 288.241 296.27 318C296.27 364.468 258.468 402.27 212 402.27ZM159.715 264.682C145.392 278.714 137.27 297.86 137.27 318C137.27 359.208 170.792 392.73 212 392.73C253.207 392.73 286.73 359.221 286.73 318C286.73 291.792 273.188 268.697 252.717 255.354L216.174 320.332C214.478 323.34 209.549 323.34 207.853 320.332L178.729 268.565C172.409 271.003 164.472 269.307 159.715 264.682ZM186.441 262.841L212 308.275L244.396 250.664C228.138 242.82 207.998 240.925 189.568 246.755C190.018 248.345 190.27 250.015 190.27 251.75C190.27 255.924 188.839 259.78 186.441 262.841ZM172.25 243.27C167.573 243.27 163.77 247.073 163.77 251.75C163.77 256.428 167.573 260.23 172.25 260.23C176.927 260.23 180.73 256.428 180.73 251.75C180.73 247.073 176.927 243.27 172.25 243.27ZM212 233.73C225.303 233.73 237.89 236.831 249.087 242.343L279.601 188.097C276.302 184.825 274.248 180.306 274.248 175.298C274.248 173.098 274.646 171.005 275.361 169.057C258.481 154.098 248.384 133.229 247.126 110.757H189.634C187.779 117.515 182.081 122.695 175.046 123.795C170.209 146.413 156.615 165.254 138.197 177.047L170.143 233.85C175.284 233.227 180.69 235.055 184.387 238.434C193.331 235.32 202.606 233.73 212 233.73ZM292.268 166.818C287.591 166.818 283.788 170.621 283.788 175.298C283.788 179.975 287.591 183.778 292.268 183.778C296.946 183.778 300.748 179.975 300.748 175.298C300.748 170.621 296.932 166.818 292.268 166.818ZM310.116 177.709C316.953 179.723 324.042 180.744 331.25 180.744C372.457 180.744 405.98 147.221 405.98 106.014C405.98 64.8062 372.457 31.2705 331.25 31.2705C291.646 31.2705 259.143 62.2357 256.666 101.23H331.25C332.946 101.23 334.509 102.131 335.371 103.589C336.232 105.046 336.245 106.862 335.41 108.332L304.949 162.512C308.248 165.784 310.288 170.303 310.288 175.298C310.288 176.119 310.222 176.928 310.116 177.709ZM92.75 31.2705C51.5425 31.2705 18.02 64.793 18.02 106C18.02 147.208 51.5425 180.73 92.75 180.73C104.33 180.73 115.341 178.107 125.186 173.39L88.5895 108.332C87.768 106.862 87.7812 105.06 88.6292 103.589C89.4905 102.131 91.054 101.23 92.75 101.23H154.866C156.363 95.798 160.338 91.3725 165.506 89.2922C157.821 55.412 127.915 31.2705 92.75 31.2705ZM100.912 110.77L133.494 168.713C149.341 158.417 161.093 142.173 165.506 122.709C160.338 120.615 156.363 116.203 154.866 110.77H100.912ZM256.666 110.77C257.898 130.168 266.55 148.175 280.953 161.279C285.113 157.914 291.235 156.443 296.641 157.821L323.101 110.77H256.666ZM172.25 97.5205C167.573 97.5205 163.77 101.323 163.77 106C163.77 110.678 167.573 114.48 172.25 114.48C176.927 114.48 180.73 110.678 180.73 106C180.73 101.323 176.927 97.5205 172.25 97.5205Z" fill="white"/>
</g>
<defs>
<clipPath id="clip0_130_42322">
<rect width="424" height="424" fill="white"/>
</clipPath>
</defs>
</svg>
