<?xml version="1.0" encoding="utf-8"?>
<!-- Generator: Adobe Illustrator 26.5.0, SVG Export Plug-In . SVG Version: 6.00 Build 0)  -->
<svg version="1.1" id="Layer_1" xmlns="http://www.w3.org/2000/svg" xmlns:xlink="http://www.w3.org/1999/xlink" x="0px" y="0px"
	 viewBox="0 0 424 424" style="enable-background:new 0 0 424 424;" xml:space="preserve">
<style type="text/css">
	.st0{fill:#F4F4F4;}
</style>
<path class="st0" d="M212,7.8L61.5,89.9V265c0,81.6,68.9,150.5,150.5,150.5S362.5,346.6,362.5,265V89.9L212,7.8z M342.4,317.4
	L212,246.3v10.9l126.4,68.9c-9.3,18.6-22.4,35.1-38.5,48.2L212,326.4v10.9l79.4,43.3C268.6,396.5,241.2,406,212,406
	c-76.4,0-141-64.6-141-141V95.6l141-76.9l141,76.9v68.6L212,87.3v10.9l141,76.9v68.1l-141-76.9v10.9L353,254v11
	C353,283.4,349.2,301.1,342.4,317.4z"/>
</svg>
